<?xml version='1.0' encoding='utf-8'?>
<svg xmlns="http://www.w3.org/2000/svg" enable-background="new 0 0 171.8 189.5" version="1.0" viewBox="0 0 171.8 189.5"> <style type="text/css">.st0{fill:#FFFFFF;}</style> <switch> <g> <path class="st0" d="m170.6 188.3c0.1-8.8-0.9-17.5-3-26-1.9-7.7-5.6-16-13.1-18.8-3.5-1.3-7.2-1.1-10.9-1.6-9.1-1.2-17.6-6.5-22.7-14.1-4.7-7-8.2-15.3-8.1-23.7 0.1-14.9 8-33.6-7-39.9-0.2-11-3.8-30.2-8-40.4s-6.3-15.2-16.4-19.8-22.8-3.6-31.1 3.7c-9.4 8.3-11.2 22-12.3 34.4-0.5 5.1-0.9 10.2-1.4 15.3-0.1 1.5-0.4 3.1-1.5 4.1-0.7 0.5-1.5 0.8-2.4 0.9-8.4 1.4-18.4-2.7-24.7 3-1.9 1.7-3.1 4.1-4 6.5-3 7.9-3.5 16.7-1.4 24.9 0.7 2.8 2.3 6.1 5.3 6.2 4.4 0.2 6.4-6.7 10.8-6.9 2-0.1 3.7 1.3 5.7 1.5 5.4 0.5 8.8-7.9 14.2-7-2.9 22.3 5.8 45.8 22.7 60.7s41.2 20.7 63 15.1c5.9-1.5 11.7-3.9 17.8-4.1 12.8-0.4 26.8 13.1 28.5 26z"/> <path d="m165.5 152.9c-2-4.1-5-7.9-9.1-9.9-5.1-2.5-11.1-1.6-16.5-3.1-11.7-3.1-19.6-12.7-23.7-23.7-2-5.5-2.5-11-2-16.7 0.4-4.6 1.2-9.2 1.6-13.8 0.8-8.8-0.2-17.9-8.9-22.2-0.3-8.7-1.8-17.5-3.8-26-1.9-8.1-4.5-16.4-8.6-23.6-8.4-14.6-30.9-18.3-44-8.1-7.1 5.6-10.5 14.5-12.1 23.3-0.9 4.9-1.4 9.9-1.9 14.9-0.3 2.9-0.5 5.7-0.8 8.6-0.2 2.7 0.3 7.5-2.8 8.4-4.6 1.5-10.2 0-14.9 0-4.2 0-8.5 0.9-11.6 4-3.3 3.4-4.8 8.7-5.7 13.3-1 5.2-1.1 10.6-0.2 15.9 0.7 3.8 2 9.3 6.5 10 4 0.7 6.2-3.3 8.8-5.5 2.5-2.2 4.5-0.6 7.3 0 1.8 0.4 3.5 0 5.1-0.8 2.9-1.6 5.4-5.4 8.8-5.9-2.6 24.5 8.3 49.8 28.3 64.4 10.2 7.4 22.4 11.9 35 13.2 6.3 0.6 12.6 0.4 18.8-0.7 7.4-1.3 14.4-4.6 21.8-5.1 13.5-0.9 26.5 11.9 28.4 24.8v0.3c0.1 0.7 0.7 0.9 1.3 0.8s1.1-0.4 1.1-1.2c0.3-11.8-0.9-25-6.2-35.6zm-14.2 10.1c-5.9-2.4-11.8-2-17.8-0.4-6.7 1.7-13.1 3.9-20 4.6-26.4 2.4-52.6-10.9-65.5-34.2-7.1-12.8-10.1-27.7-8.2-42.2 0.1-0.7-0.6-1.2-1.2-1.2-3.1-0.4-5.5 1.6-7.7 3.5-1.2 1-2.3 2.1-3.7 2.8-2.5 1.1-4.2 0.1-6.5-0.6-3.2-0.9-5.5 0.6-7.7 2.8-1 1.1-2 2.4-3.4 3.2-2.4 1.4-4.3-0.5-5.2-2.6-2-4.6-2.2-10.4-1.8-15.3 0.4-5 1.6-10.8 4.4-15.1 5.4-8.2 17.3-3.5 25.3-4.7 4.3-0.6 5.2-3.3 5.6-7.2l1.5-16.2c0.9-8.8 2.1-18.2 6.9-25.9 5-8 13.7-12.1 23-11.8 7.9 0.2 16.9 3.6 21.7 10.1 4.9 6.6 7.5 15.5 9.4 23.4 2.1 8.6 3.8 17.6 4.1 26.5-7.4-2.5-15.5-4-23.2-4.3-8.3-0.4-15.1 3.3-18.2 11.2-1.7 4.1-2 8.6-1.9 13 0.1 4-0.1 8.8 1.9 12.4 1.5 2.7 4.2 4.5 7.3 4.2 3.5-0.4 5.8-3.4 8.7-5 4.4-2.5 8.8 0.9 13.3-0.2 3.5-0.8 9.3-7.7 12.8-5 1.3 1 2.5-1.2 1.2-2.1-2.4-1.8-5-0.9-7.4 0.5-1.4 0.8-2.9 1.8-4.3 2.8-2.1 1.4-4 1.8-6.4 1.3-3.1-0.5-6-1.4-9-0.2-2.8 1.2-4.8 3.6-7.6 4.9-9.5 4.3-8.4-15.9-7.6-20.6 0.6-3.8 2-7.6 4.6-10.4 3-3.3 7.1-4.4 11.4-4.4 8.4 0 17.5 1.8 25.3 4.8 8.5 3.9 8.9 12.6 8 20.9-1 9.7-3.1 19-0.2 28.6 3 9.8 9.1 19.2 18.2 24.3 4.3 2.4 9 3.8 13.9 4.2 6 0.6 11.2 1.2 15.2 6.2 3.7 4.6 5.4 10.6 6.6 16.3 1 4.5 1.6 9.1 2 13.7-3.7-7.5-10.4-13.6-17.8-16.6z"/> <path d="m46.8 29.7c-0.1 0.1-0.1 0.3-0.2 0.4 0 0.1 0 0.2-0.1 0.3-0.5 2.8-0.7 5.7-0.7 8.5 0 2.3-0.1 4.9 1.1 7 0.8 1.3 2.2 2.4 3.8 1.8 1.8-0.7 2.8-3.3 3.4-5 1.5-4.1 1.5-9.7-1.2-13.5-1.6-2.3-4.9-2.3-6.1 0.5zm4.7 13.4c-0.6 1.2-1.4 2.9-2.5 1.1-0.7-1.1-0.5-2.9-0.6-4.2-0.1-3.1 0.1-6.1 0.6-9.2 0.6-2 2.3 0.4 2.7 1.2 0.5 1.1 0.8 2.2 0.9 3.4 0.4 2.6 0 5.3-1.1 7.7z"/> <path d="m65.3 27.1c-1.9-2.5-7.1-3.8-7.6 0.2 0 0.1-0.1 0.2 0 0.4 0.2 5.7-2.1 12.8 0.5 18.2 0.7 1.4 2.1 2.6 3.8 2.2 2.2-0.5 3.1-3.1 3.8-4.9 1.7-4.8 2.8-11.8-0.5-16.1zm-0.4 7.8c0 3.1-0.7 6.8-2.3 9.4-0.5 0.9-1.5 1.1-2.2 0.1-0.4-0.6-0.5-2.5-0.6-3-0.1-1.4-0.1-2.8 0-4.1 0.2-3.3 0.6-6.5 0.5-9.7 0-1.1 1.8-0.2 2.1 0 1 0.6 1.6 1.5 2 2.5 0.4 1.5 0.5 3.3 0.5 4.8z"/> </g> </switch> </svg>